{"title":"Klaas.Van.Den.Eerden.Schaap.DVDRIP.XVID-MisterDeee","uid":6126716,"size":647632694,"categoryP":"video","categoryS":"tv_shows","magnet":"?xt=urn:btih:3f83756a7fe6ed9b4609ca1cb41e426374852347&amp;dn=Klaas.Van.Den.Eerden.Schaap.DVDRIP.XVID-MisterDeee&amp;tr=udp%3A%2F%2Ftracker.openbittorrent.com%3A80&amp;tr=udp%3A%2F%2Fopen.demonii.com%3A1337&amp;tr=udp%3A%2F%2Ftracker.coppersurfer.tk%3A6969&amp;tr=udp%3A%2F%2Fexodus.desync.com%3A6969","seeders":0,"leechers":1,"uploader":"MisterDeee","files":1,"time":1295964329,"description":"Misschien ken je hem als &quot;Die jongen met die dwarsfluit&quot; of als &quot;Die human beatbox&quot; of ken je hem als tv-presentator (van Het Klokhuis en af en toe VARA Laat) of heb je zijn eerste show Extreem! en tweede show &quot;Mix&quot; gezien op tv of DVD. Misschien ken je dit multitalent wel helemaal niet, dan wordt het zeker tijd dat je zijn derde cabaretshow gaat zien.\n&quot;Schaap&quot; is een programma dat gaat over de wolf in Klaas. Hij zet dit thema in een flitsende show met behulp standup, types, improvisaties en muzi... \n\nGeneral\nFormat                           : AVI\nFormat/Info                      : Audio Video Interleave\nFile size                        : 618 MiB\nDuration                         : 1h 12mn\nOverall bit rate                 : 1 198 Kbps\n\nVideo\nID                               : 0\nFormat                           : MPEG-4 Visual\nFormat profile                   : Simple@L3\nFormat settings, BVOP            : No\nFormat settings, QPel            : No\nFormat settings, GMC             : No warppoints\nFormat settings, Matrix          : Default (H.263)\nCodec ID                         : XVID\nCodec ID/Hint                    : XviD\nDuration                         : 1h 12mn\nBit rate                         : 1 000 Kbps\nWidth                            : 672 pixels\nHeight                           : 368 pixels\nDisplay aspect ratio             : 16:9\nFrame rate                       : 30.000 fps\nColor space                      : YUV\nChroma subsampling               : 4:2:0\nBit depth                        : 8 bits\nScan type                        : Progressive\nBits/(Pixel*Frame)               : 0.135\nStream size                      : 515 MiB (83%)\nWriting library                  : XviD 1.1.2 (UTC 2006-11-01)\n\nAudio\nID                               : 1\nFormat                           : AC-3\nFormat/Info                      : Audio Coding 3\nMode extension                   : CM (complete main)\nCodec ID                         : 2000\nDuration                         : 1h 12mn\nBit rate mode                    : Constant\nBit rate                         : 192 Kbps\nChannel(s)                       : 2 channels\nChannel positions                : Front: L R\nSampling rate                    : 48.0 KHz\nBit depth                        : 16 bits\nStream size                      : 99.0 MiB (16%)\nAlignment                        : Split accross interleaves\nInterleave, duration             : 500 ms (15.00 video frames)\nInterleave, preload duration     : 500 ms\n\nLeave your comment about Audio/Video/Movie","torrent":{"xt":"urn:btih:3f83756a7fe6ed9b4609ca1cb41e426374852347","amp;dn":"Klaas.Van.Den.Eerden.Schaap.DVDRIP.XVID-MisterDeee","amp;tr":["udp%3A%2F%2Ftracker.openbittorrent.com%3A80","udp%3A%2F%2Fopen.demonii.com%3A1337","udp%3A%2F%2Ftracker.coppersurfer.tk%3A6969","udp%3A%2F%2Fexodus.desync.com%3A6969"],"infoHash":"3f83756a7fe6ed9b4609ca1cb41e426374852347","infoHashBuffer":{"type":"Buffer","data":[63,131,117,106,127,230,237,155,70,9,202,28,180,30,66,99,116,133,35,71]},"announce":[],"urlList":[]}}